<?xml version="1.0" encoding="iso-8859-1"?>
<!-- Generator: Adobe Illustrator 19.0.0, SVG Export Plug-In . SVG Version: 6.00 Build 0)  -->
<svg version="1.1" id="plc_1" xmlns="http://www.w3.org/2000/svg" xmlns:xlink="http://www.w3.org/1999/xlink" x="0px" y="0px"
	 height="700" viewBox="-15 -15 350 350" width="700" style="enable-background:new 30 -30 400 400;" xml:space="preserve">
    <g class="host_object">
        <path
            d="M146.0743948502357,74.45574678576898h17.065v10.537c0,7.321,5.961,13.276,13.276,13.276c7.309,0,13.264,-5.955,13.264,-13.276V74.45574678576898h17.083c7.644,0,13.867,-6.212,13.867,-13.849c0,-7.644,-6.223,-13.867,-13.867,-13.867h-60.689c-7.644,0,-13.867,6.223,-13.867,13.867C132.20739485023572,68.24474678576898,138.4303948502357,74.45574678576898,146.0743948502357,74.45574678576898Z"/>
        <path
            d="M302.6781643663848,125.69893309619872c-11.581999999999994,0,-21.002999999999986,9.427999999999997,-21.002999999999986,21.008999999999986v6.199999999999989h-29.763000000000005l0.036000000000001364,-42.38900000000001c0,-3.698999999999998,-1.4439999999999884,-7.1839999999999975,-4.056999999999988,-9.820999999999998c-2.6310000000000002,-2.6189999999999998,-6.1159999999999854,-4.057000000000002,-9.816000000000003,-4.057000000000002h-116.33c-4.929000000000002,0,-9.522999999999996,2.655000000000001,-12.004999999999995,6.9339999999999975l-28.468000000000004,49.32800000000002h-5.817999999999998v-14.834000000000003c0,-6.825999999999993,-5.549000000000007,-12.375,-12.375,-12.375c-6.82,0,-12.363,5.555000000000007,-12.363,12.375v14.834000000000003h-5.0120000000000005v-14.834000000000003c0,-6.825999999999993,-5.5489999999999995,-12.375,-12.363,-12.375c-6.832000000000001,0,-12.381,5.555000000000007,-12.381,12.375v14.834000000000003h-5.334c-12.074000000000028,-0.0009999999999763531,-21.90100000000003,9.820000000000022,-21.90100000000003,21.89100000000002s9.821,21.897999999999996,21.898,21.897999999999996h5.334000000000003v20.51400000000001c0,6.831999999999994,5.555,12.375,12.381,12.375c6.82,0,12.363,-5.549000000000007,12.363,-12.375v-20.51400000000001h5.0120000000000005v20.51400000000001c0,6.831999999999994,5.5489999999999995,12.375,12.363,12.375c6.831999999999994,0,12.375,-5.549000000000007,12.375,-12.375v-20.51400000000001h2.524000000000001l31.762,55.008999999999986c2.4819999999999993,4.277999999999992,7.076999999999998,6.934000000000026,12.004999999999995,6.934000000000026h77.52799999999999c4.953000000000003,0,9.558999999999997,-2.655000000000001,12.016999999999996,-6.9339999999999975l31.768,-55.008999999999986h38.623999999999995v17.070999999999998c0,11.581999999999994,9.415999999999997,21.008999999999986,21.002999999999986,21.008999999999986s21.002999999999986,-9.427999999999997,21.002999999999986,-21.009000000000015v-67.06799999999998c-0.009999999999934062,-11.568000000000012,-9.42599999999993,-20.99600000000001,-21.006999999999948,-20.99600000000001ZM233.1835153490508,165.07535394123045l-0.8987797164916174,4.847945915222255l-40.065961692810106,67.17978760528558l-67.0465594329834,-0.16231661987305301l-33.13893938369024,-60.20950342418621l10.442037336037771,-20.759835940232477h0.17759541175918514l24.54401368240204,-41.92517781697782h105.69365971374515l0.2929340820312234,51.029100280761725Z"/>
    </g>
</svg>
